<?xml version="1.0" standalone="no"?>
<!DOCTYPE svg PUBLIC "-//W3C//DTD SVG 20010904//EN"
 "http://www.w3.org/TR/2001/REC-SVG-20010904/DTD/svg10.dtd">
<svg version="1.0" xmlns="http://www.w3.org/2000/svg"
 width="514.000000pt" height="203.000000pt" viewBox="0 0 514.000000 203.000000"
 preserveAspectRatio="xMidYMid meet">

<g transform="translate(0.000000,203.000000) scale(0.100000,-0.100000)"
fill="#000000" stroke="none">
<path d="M661 1987 c-6 -8 -153 -267 -326 -577 l-315 -564 0 -98 0 -98 395 0
395 0 0 -170 0 -170 140 0 140 0 0 169 0 170 90 3 90 3 5 -35 c26 -165 42
-208 99 -257 50 -45 98 -58 206 -57 148 1 215 42 259 157 39 106 46 380 12
504 -20 71 -60 123 -114 149 -29 13 -63 24 -77 25 -14 0 -34 4 -45 8 -15 6
-10 9 24 14 129 17 200 159 171 341 -24 154 -103 205 -267 173 -43 -8 -89 -18
-102 -23 l-24 -7 6 71 c7 82 30 129 67 140 14 4 80 6 148 6 l122 -2 0 49 0 48
-57 17 c-33 10 -95 17 -144 18 -75 0 -92 -3 -145 -29 -52 -26 -63 -37 -89 -89
l-30 -60 0 -255 0 -256 28 -48 c22 -38 41 -54 80 -73 29 -13 61 -24 72 -24 11
0 27 -5 35 -10 12 -8 9 -10 -11 -10 -113 -1 -198 -96 -215 -240 -7 -57 -9 -61
-14 -30 l-5 35 -87 3 -88 3 -2 542 -3 542 -206 3 c-164 2 -209 0 -218 -11z
m149 -647 l0 -430 -239 0 -239 0 165 303 c285 522 304 557 309 557 2 0 4 -193
4 -430z m832 203 c41 -42 42 -193 1 -234 -24 -24 -77 -34 -137 -25 -38 6 -46
12 -61 43 -23 48 -33 207 -15 218 50 31 180 30 212 -2z m18 -543 c12 -6 32
-33 43 -58 20 -42 22 -64 22 -212 0 -141 -3 -172 -20 -215 -27 -66 -66 -88
-149 -82 -49 3 -63 8 -82 30 -40 46 -54 117 -54 267 0 188 26 265 95 283 30 9
120 0 145 -13z"/>
<path d="M2063 930 c-76 -17 -125 -79 -148 -186 -35 -167 -3 -354 70 -412 43
-34 122 -45 191 -29 33 8 67 18 77 22 15 6 17 0 17 -67 0 -109 -6 -113 -172
-112 l-129 1 3 -46 c3 -44 5 -47 43 -59 22 -8 76 -16 121 -19 144 -10 228 31
254 125 6 22 10 183 10 405 l0 367 -49 0 c-40 0 -51 -4 -56 -19 -6 -19 -7 -19
-58 4 -58 25 -125 35 -174 25z m163 -131 l44 -11 0 -178 c0 -204 8 -190 -102
-190 -112 0 -132 28 -132 190 0 110 14 173 42 190 23 13 93 12 148 -1z"/>
<path d="M2715 930 c-38 -5 -82 -13 -97 -19 -25 -9 -28 -16 -28 -57 l0 -46 80
7 c99 9 176 -1 201 -26 14 -14 19 -34 19 -80 l0 -61 -42 9 c-24 4 -78 8 -120
8 -91 0 -120 -16 -156 -86 -20 -37 -23 -55 -19 -114 7 -128 50 -170 172 -169
66 0 87 7 178 52 4 2 7 -6 7 -17 0 -19 6 -21 55 -21 l55 0 0 228 c0 258 -9
313 -60 355 -43 37 -129 50 -245 37z m153 -376 c19 -6 22 -13 22 -60 0 -64
-13 -74 -107 -82 -80 -6 -103 10 -103 74 0 57 24 74 105 74 33 0 70 -3 83 -6z"/>
<path d="M3395 919 c-33 -12 -66 -26 -73 -32 -10 -8 -16 -7 -23 4 -5 8 -9 17
-9 22 0 4 -22 7 -50 7 l-50 0 0 -305 0 -305 65 0 65 0 0 240 0 240 28 11 c15
6 53 11 85 12 88 3 87 7 87 -270 l0 -233 65 0 65 0 0 244 0 244 65 12 c75 14
119 3 129 -33 3 -12 6 -122 6 -244 l0 -223 66 0 66 0 -4 258 c-3 237 -5 260
-24 297 -29 57 -73 78 -150 71 -34 -3 -87 -17 -119 -31 -57 -25 -59 -25 -79
-6 -53 47 -114 53 -211 20z"/>
<path d="M4294 931 c-119 -30 -184 -141 -184 -311 0 -148 46 -253 130 -300 38
-21 58 -25 130 -25 53 0 107 7 143 18 l58 18 -3 47 -3 47 -45 -5 c-83 -9 -185
-5 -217 8 -34 15 -63 63 -63 106 l0 26 173 2 172 3 0 110 c0 91 -4 118 -22
157 -31 68 -84 100 -171 104 -37 2 -81 -1 -98 -5z m151 -136 c21 -20 25 -34
25 -80 l0 -55 -115 0 -115 0 0 40 c0 46 21 94 47 109 10 6 44 11 76 11 48 0
62 -4 82 -25z"/>
<path d="M4820 929 c-83 -26 -129 -92 -130 -187 0 -64 18 -111 54 -140 15 -11
69 -30 124 -42 53 -13 103 -27 110 -32 6 -6 12 -30 12 -54 0 -33 -5 -46 -19
-54 -24 -12 -191 -13 -243 -1 l-38 9 0 -48 0 -48 53 -19 c80 -27 238 -25 294
5 60 31 77 69 77 167 0 135 -23 159 -186 195 -55 12 -98 27 -105 37 -21 27
-16 81 8 93 22 12 169 15 225 4 l34 -6 0 50 c0 50 -1 51 -37 62 -55 16 -192
21 -233 9z"/>
</g>
</svg>
